<?xml version="1.0" encoding="utf-8"?>
<!-- Generator: Adobe Illustrator 25.0.1, SVG Export Plug-In . SVG Version: 6.00 Build 0)  -->
<svg version="1.1" id="Layer_1" xmlns="http://www.w3.org/2000/svg" xmlns:xlink="http://www.w3.org/1999/xlink" x="0px" y="0px"
	 viewBox="0 0 391 768" style="enable-background:new 0 0 391 768;" xml:space="preserve">
<style type="text/css">
	.st0{fill:none;stroke:#2B2B2A;stroke-width:0.5;}
</style>
<path class="st0" d="M38.5,696.5c0,0,17.89-2.23,37-2c19.24,0.23,30,1,45.43-2.27c10.48-2.22,12.57,9.27,25.3,7.8
	c12.66-1.46,2.56-6.43,12.11-6.43s7.32,17.54,16.68,20.11c9.36,2.57,6.69-21.48,17.7-21.48c11.01,0,8.82,2.85,16.01,2.91
	c7.2,0.06,7.45-3.85,10.1-5.07c2.64-1.22,8.6-1.83,15.41,1.7c6.81,3.53,9.6,13.21,15.97,13.15c6.37-0.06,6-17,11.73-17
	c5.73,0,11.26,21.75,18.14,16.02c9.55-7.96,13.38-15.69,21.21-15.69s5.41,7.11,12.42,10.9c7,3.79,17.24-6.94,21.5-11.15
	c4.27-4.21,6.01-4.74,9.74-4.94"/>
</svg>
