<svg xmlns="http://www.w3.org/2000/svg" viewBox="0 0 734.2 54"><defs><style>.cls-1{fill:#fff;}</style></defs><g id="Layer_2" data-name="Layer 2"><g id="Layer_1-2" data-name="Layer 1"><path class="cls-1" d="M0,0V54H734V0ZM734.19,21.09h-1c-.71,0-71.1-.38-82.25,0-4.85.17-7.1,1.67-9.71,3.42a21.85,21.85,0,0,1-13.05,4.38c-7.11.3-8.63-1.59-9.88-4.08-.68-1.36-1.17-2.35-4.81-2.35-4.19,0-6.19,4.16-8.52,9s-4.71,9.72-9.74,11.1a5,5,0,0,1-4-.4c-2.65-1.55-3.64-5.59-4.69-9.87-1.41-5.74-2.74-11.17-7.4-11.17-5.88,0-8,.84-9.8,1.58A15.57,15.57,0,0,1,562.65,24h-.17c-5.34,0-7.12-2.16-8.43-3.73a4.81,4.81,0,0,0-1.57-1.46c-2.18-1-7.64-1.78-14.31,1.67-2.84,1.47-4.43,4.31-5.84,6.81-1.79,3.19-3.64,6.48-7.74,6.48s-6.54-4.86-8.9-9.53c-1.85-3.67-3.77-7.47-5.8-7.47-1.71,0-3.86,4.2-5.58,7.56-2.19,4.28-4.46,8.7-7.59,9.34a4.49,4.49,0,0,1-3.87-1.17c-2.45-2-4.6-4-6.68-5.93-5.74-5.3-10.27-9.47-15.63-9.47-3.61,0-4.45,1.56-5.84,4.15a14.18,14.18,0,0,1-6,6.59c-7,3.78-15.06-4.59-19.88-9.59-.64-.66-1.22-1.26-1.73-1.77-4-4-5.94-4.32-9-4.58-3.62-.32-51-.06-60.19,0-2.32,0-56.37-.19-60,0-3.42.18-4.87.58-8.93,4.58l-.68.68c-4.81,4.77-14.83,14.72-22.3,10.68a14.29,14.29,0,0,1-6-6.59c-1.39-2.59-2.23-4.15-5.84-4.15-4.78,0-7.87,3.16-12.54,7.94a103,103,0,0,1-7.87,7.46A4.69,4.69,0,0,1,240,33.7c-3.38-.57-6.14-5.1-8.8-9.48-2-3.32-4.54-7.45-6.28-7.45-1.89,0-3.13,3.71-4.33,7.3-1.59,4.75-3.23,9.66-7.39,9.7s-7-3.42-9.65-6.74c-2-2.51-4.14-5.11-6.9-6.55C190,17,184.49,17.81,182.32,18.81a5.87,5.87,0,0,0-1.68,1.45c-1.44,1.58-3.42,3.74-8.79,3.74h-.16a14.25,14.25,0,0,1-6.5-1.35c-1.71-.73-3.64-1.57-9.5-1.57-4.71,0-6.5,5.43-8.39,11.17-1.71,5.17-3.47,10.51-8,10.51a6.31,6.31,0,0,1-1.68-.24c-5.14-1.41-7.16-6.67-8.93-11.31s-3.35-8.76-7.43-8.76c-3.32,0-3.4.66-3.57,2-.31,2.53-1.21,4.78-8.58,4.47-6.89-.29-10.65-2.34-14.28-4.32-3.14-1.7-6.1-3.31-11-3.48-11-.37-81.54,0-82.25,0h-1l0-2.5H1.74c7.3,0,71.61-.35,82.2,0,5.51.19,8.72,1.94,12.12,3.79s6.88,3.74,13.19,4c5.69.25,5.82-.81,6-2.28.28-2.18,1-4.15,6-4.15,5.8,0,7.81,5.27,9.76,10.36,1.64,4.29,3.34,8.72,7.26,9.8,3.28.9,4.64-2.69,6.6-8.63,1.9-5.75,4.25-12.9,10.77-12.9,6.37,0,8.56,1,10.49,1.78a11.82,11.82,0,0,0,5.53,1.14h.07c4.34,0,5.7-1.49,7-2.93a7.76,7.76,0,0,1,2.47-2c2.59-1.19,9-2.18,16.51,1.72,3.23,1.68,5.5,4.49,7.7,7.2,2.41,3,4.69,5.81,7.63,5.81,2.42,0,3.84-4.26,5.09-8,1.55-4.63,3-9,6.7-9,3.15,0,5.59,4,8.41,8.65,2.26,3.72,4.83,7.94,7.08,8.31a2.21,2.21,0,0,0,1.85-.65,97.57,97.57,0,0,0,7.68-7.29c4.75-4.86,8.5-8.69,14.33-8.69,5.11,0,6.6,2.78,8.05,5.46,1.07,2,2.19,4.08,5,5.58,5.84,3.16,15-5.9,19.35-10.26l.68-.68c4.62-4.55,6.66-5.09,10.56-5.3s59.55,0,60.1,0h.2c9.38-.06,56.33-.33,60.2,0,3.51.3,6,.81,10.52,5.29.52.52,1.12,1.14,1.77,1.82,4.33,4.49,11.58,12,16.89,9.12,2.78-1.5,3.89-3.57,5-5.57,1.44-2.69,2.93-5.47,8-5.47,6.33,0,11.18,4.47,17.32,10.12,2.05,1.89,4.18,3.85,6.59,5.86a2,2,0,0,0,1.77.65c2-.4,4-4.45,5.86-8,2.35-4.59,4.57-8.93,7.81-8.93,3.57,0,5.74,4.3,8,8.84,1.93,3.82,4.12,8.14,6.62,8.16s3.79-2,5.61-5.2c1.58-2.81,3.37-6,6.87-7.81,7.53-3.9,13.92-2.91,16.5-1.72A6.92,6.92,0,0,1,556,18.67c1.21,1.45,2.35,2.83,6.51,2.83h.15a13.17,13.17,0,0,0,5.74-1.15c2-.83,4.37-1.77,10.74-1.77,6.62,0,8.4,7.25,9.83,13.07.88,3.59,1.79,7.3,3.52,8.32a2.6,2.6,0,0,0,2.1.14c4-1.08,6.09-5.51,8.16-9.78,2.47-5.1,5-10.38,10.77-10.38,5.18,0,6.21,2.07,7,3.73s1.49,3,7.54,2.7a19.47,19.47,0,0,0,11.77-4,18.55,18.55,0,0,1,11-3.84c11.24-.38,81.64,0,82.34,0h1Z"/></g></g></svg>