<svg xmlns="http://www.w3.org/2000/svg" viewBox="0 0 306.62 32.86"><defs><style>.cls-1{fill:none;stroke:#2b2b2a;stroke-width:2px;}</style></defs><g id="Layer_2" data-name="Layer 2"><g id="Layer_1-2" data-name="Layer 1"><path class="cls-1" d="M.12,14.45a311.61,311.61,0,0,1,37-2c19.24.23,30,1,45.43-2.27C93,8,95.12,19.45,107.85,18s2.56-6.43,12.11-6.43,7.32,17.54,16.68,20.11,6.69-21.48,17.7-21.48,8.82,2.85,16,2.91,7.46-3.85,10.1-5.07,8.6-1.83,15.41,1.7,9.6,13.21,16,13.15,6-17,11.73-17,11.26,21.76,18.14,16c9.55-8,13.38-15.7,21.21-15.7s5.41,7.12,12.41,10.9,17.24-6.94,21.51-11.15,6-4.74,9.74-4.94"/></g></g></svg>