<svg xmlns="http://www.w3.org/2000/svg" viewBox="0 0 763 54"><defs><style>.cls-1{fill:#fff;}</style></defs><g id="Layer_2" data-name="Layer 2"><g id="Layer_1-2" data-name="Layer 1"><path class="cls-1" d="M0,0V54H763V0ZM748.3,22.09h-1c-.7,0-71.1-.38-82.24,0-4.86.17-7.11,1.67-9.71,3.42a21.86,21.86,0,0,1-13.06,4.38c-7.11.3-8.63-1.59-9.88-4.08-.68-1.36-1.17-2.35-4.81-2.35-4.18,0-6.19,4.16-8.52,9s-4.7,9.72-9.74,11.1a5,5,0,0,1-4-.4c-2.64-1.55-3.63-5.59-4.68-9.87-1.42-5.74-2.75-11.17-7.41-11.17-5.88,0-8,.84-9.8,1.58A15.56,15.56,0,0,1,576.76,25h-.18c-5.33,0-7.12-2.16-8.43-3.73a4.81,4.81,0,0,0-1.57-1.46c-2.18-1-7.64-1.78-14.31,1.67-2.83,1.47-4.43,4.31-5.84,6.81-1.79,3.19-3.64,6.48-7.74,6.48s-6.54-4.86-8.89-9.53c-1.86-3.67-3.78-7.47-5.8-7.47-1.72,0-3.87,4.2-5.59,7.56-2.19,4.28-4.45,8.7-7.59,9.34A4.49,4.49,0,0,1,507,33.5c-2.44-2-4.59-4-6.67-5.93-5.75-5.3-10.28-9.47-15.63-9.47-3.62,0-4.45,1.56-5.84,4.15a14.29,14.29,0,0,1-6,6.59c-7,3.78-15.06-4.59-19.88-9.59-.65-.66-1.22-1.26-1.74-1.77-4-4-5.94-4.32-9-4.58-3.62-.32-51-.06-60.18,0-2.33,0-56.38-.19-60,0-3.42.18-4.87.58-8.93,4.58l-.68.68c-4.81,4.77-14.82,14.72-22.29,10.68a14.18,14.18,0,0,1-6-6.59c-1.39-2.59-2.23-4.15-5.84-4.15-4.79,0-7.87,3.16-12.55,7.94A104.63,104.63,0,0,1,258,33.5a4.7,4.7,0,0,1-3.87,1.2c-3.38-.57-6.14-5.1-8.8-9.48-2-3.32-4.53-7.45-6.28-7.45s-3.13,3.71-4.33,7.3c-1.58,4.75-3.23,9.66-7.38,9.7s-7-3.42-9.65-6.74c-2-2.51-4.14-5.11-6.91-6.55-6.67-3.45-12.13-2.67-14.31-1.67a5.85,5.85,0,0,0-1.67,1.45C193.3,22.84,191.32,25,186,25h-.16a14.16,14.16,0,0,1-6.49-1.35c-1.71-.73-3.65-1.57-9.51-1.57-4.71,0-6.5,5.43-8.39,11.17-1.7,5.17-3.46,10.51-8,10.51a6.37,6.37,0,0,1-1.68-.24c-5.14-1.41-7.15-6.67-8.93-11.31s-3.35-8.76-7.42-8.76c-3.33,0-3.41.66-3.57,2-.32,2.53-1.21,4.78-8.59,4.47-6.89-.29-10.65-2.34-14.28-4.32-3.14-1.7-6.09-3.31-11-3.48-11-.37-81.54,0-82.25,0h-1l0-2.5h1.16c7.29,0,71.61-.35,82.19,0,5.51.19,8.72,1.94,12.12,3.79s6.89,3.74,13.2,4c5.68.25,5.81-.81,6-2.28.27-2.18.94-4.15,6-4.15,5.79,0,7.81,5.27,9.76,10.36,1.64,4.29,3.33,8.72,7.25,9.8,3.28.9,4.64-2.69,6.6-8.63,1.9-5.75,4.26-12.9,10.77-12.9s8.56,1,10.49,1.78a11.89,11.89,0,0,0,5.53,1.14h.08c4.33,0,5.69-1.49,7-2.93a7.87,7.87,0,0,1,2.47-2c2.59-1.19,9-2.18,16.51,1.72,3.23,1.68,5.5,4.49,7.7,7.2,2.42,3,4.7,5.81,7.64,5.81,2.42,0,3.83-4.26,5.08-8,1.55-4.63,3-9,6.7-9,3.15,0,5.59,4,8.41,8.65,2.27,3.72,4.83,7.94,7.08,8.31a2.2,2.2,0,0,0,1.85-.65A97.83,97.83,0,0,0,264,24.29c4.74-4.86,8.49-8.69,14.33-8.69,5.1,0,6.6,2.78,8,5.46,1.08,2,2.19,4.08,5,5.58,5.83,3.16,14.95-5.9,19.34-10.26l.68-.68c4.62-4.55,6.67-5.09,10.56-5.3s59.55,0,60.1,0h.21c9.37-.06,56.32-.33,60.2,0,3.51.3,6,.81,10.51,5.29.53.52,1.12,1.14,1.78,1.82,4.33,4.49,11.57,12,16.89,9.12,2.77-1.5,3.89-3.57,5-5.57,1.45-2.69,2.94-5.47,8-5.47,6.33,0,11.18,4.47,17.32,10.12,2,1.89,4.17,3.85,6.59,5.86a2,2,0,0,0,1.76.65c2-.4,4-4.45,5.86-8,2.35-4.59,4.57-8.93,7.82-8.93,3.56,0,5.73,4.3,8,8.84,1.93,3.82,4.11,8.14,6.61,8.16s3.8-2,5.61-5.2c1.58-2.81,3.37-6,6.87-7.81,7.53-3.9,13.92-2.91,16.51-1.72a6.92,6.92,0,0,1,2.45,2.13c1.2,1.45,2.34,2.83,6.5,2.83h.15a13.26,13.26,0,0,0,5.75-1.15c2-.83,4.37-1.77,10.73-1.77,6.62,0,8.4,7.25,9.83,13.07.88,3.59,1.79,7.3,3.53,8.32a2.59,2.59,0,0,0,2.1.14c3.94-1.08,6.08-5.51,8.15-9.78,2.47-5.1,5-10.38,10.77-10.38,5.18,0,6.22,2.07,7,3.73s1.48,3,7.54,2.7a19.46,19.46,0,0,0,11.76-4c2.69-1.79,5.46-3.65,11-3.84,11.24-.38,81.64,0,82.35,0h1Z"/></g></g></svg>