<svg xmlns="http://www.w3.org/2000/svg" viewBox="0 0 306.53 31.86"><defs><style>.cls-1{fill:none;stroke:#2b2b2a;}</style></defs><g id="Layer_2" data-name="Layer 2"><g id="Layer_1-2" data-name="Layer 1"><path class="cls-1" d="M.06,14a311.61,311.61,0,0,1,37-2c19.24.23,30,1,45.43-2.27C93,7.46,95.06,19,107.79,17.48s2.56-6.43,12.11-6.43,7.32,17.54,16.68,20.11,6.69-21.48,17.7-21.48,8.82,2.85,16,2.91,7.46-3.85,10.1-5.07S189,5.7,195.8,9.22s9.6,13.21,16,13.15,6-17,11.72-17,11.26,21.76,18.14,16c9.56-8,13.38-15.69,21.22-15.69s5.41,7.11,12.41,10.89,17.24-6.94,21.5-11.15,6-4.74,9.75-4.94"/></g></g></svg>