<svg xmlns="http://www.w3.org/2000/svg" viewBox="0 0 306.49 31.36"><defs><style>.cls-1{fill:none;stroke:#2b2b2a;stroke-width:0.5px;}</style></defs><g id="Layer_2" data-name="Layer 2"><g id="Layer_1-2" data-name="Layer 1"><path class="cls-1" d="M0,13.7a311.61,311.61,0,0,1,37-2c19.24.23,30,1,45.43-2.27,10.48-2.22,12.57,9.27,25.3,7.8s2.56-6.43,12.11-6.43,7.32,17.54,16.68,20.11,6.68-21.48,17.7-21.48,8.82,2.85,16,2.91,7.45-3.85,10.1-5.07S189,5.45,195.77,9s9.6,13.21,16,13.15,6-17,11.73-17,11.26,21.76,18.14,16c9.55-8,13.38-15.69,21.21-15.69s5.42,7.11,12.42,10.89,17.24-6.94,21.5-11.15,6-4.74,9.75-4.94"/></g></g></svg>