<?xml version="1.0" encoding="utf-8"?>
<!-- Generator: Adobe Illustrator 25.1.0, SVG Export Plug-In . SVG Version: 6.00 Build 0)  -->
<svg version="1.1" id="Layer_1" xmlns="http://www.w3.org/2000/svg" xmlns:xlink="http://www.w3.org/1999/xlink" x="0px" y="0px"
	 viewBox="0 0 734.2 54" style="enable-background:new 0 0 734.2 54;" xml:space="preserve">
<style type="text/css">
	.st0{fill:#FFFFFF;}
</style>
<rect width="733.3" height="53"/>
<g id="Layer_2_1_">
	<g id="Layer_1-2">
		<path class="st0" d="M0,0v54h734V0H0z M734.2,21.1h-1c-0.7,0-71.1-0.4-82.2,0c-4.8,0.2-7.1,1.7-9.7,3.4c-3.8,2.8-8.3,4.4-13,4.4
			c-7.1,0.3-8.6-1.6-9.9-4.1c-0.7-1.4-1.2-2.4-4.8-2.4c-4.2,0-6.2,4.2-8.5,9s-4.7,9.7-9.7,11.1c-1.3,0.4-2.8,0.3-4-0.4
			c-2.7-1.5-3.6-5.6-4.7-9.9c-1.4-5.7-2.7-11.2-7.4-11.2c-5.9,0-8,0.8-9.8,1.6c-2.1,0.9-4.4,1.4-6.7,1.3h-0.2
			c-5.3,0-7.1-2.2-8.4-3.7c-0.4-0.6-0.9-1.1-1.6-1.5c-2.2-1-7.6-1.8-14.3,1.7c-2.8,1.5-4.4,4.3-5.8,6.8c-1.8,3.2-3.6,6.5-7.7,6.5
			s-6.5-4.9-8.9-9.5c-1.8-3.7-3.8-7.5-5.8-7.5c-1.7,0-3.9,4.2-5.6,7.6c-2.2,4.3-4.5,8.7-7.6,9.3c-1.4,0.2-2.8-0.2-3.9-1.2
			c-2.5-2-4.6-4-6.7-5.9c-5.7-5.3-10.3-9.5-15.6-9.5c-3.6,0-4.5,1.6-5.8,4.1c-1.2,2.8-3.3,5.1-6,6.6c-7,3.8-15.1-4.6-19.9-9.6
			c-0.6-0.7-1.2-1.3-1.7-1.8c-4-4-5.9-4.3-9-4.6c-3.6-0.3-51-0.1-60.2,0c-2.3,0-56.4-0.2-60,0c-3.4,0.2-4.9,0.6-8.9,4.6l-0.7,0.7
			c-4.8,4.8-14.8,14.7-22.3,10.7c-2.7-1.5-4.8-3.8-6-6.6c-1.4-2.6-2.2-4.1-5.8-4.1c-4.8,0-7.9,3.2-12.5,7.9
			c-2.5,2.6-5.1,5.1-7.9,7.5c-1,0.9-2.4,1.4-3.7,1.2c-3.4-0.6-6.1-5.1-8.8-9.5c-2-3.3-4.5-7.5-6.3-7.5c-1.9,0-3.1,3.7-4.3,7.3
			c-1.6,4.8-3.2,9.7-7.4,9.7s-7-3.4-9.6-6.7c-2-2.5-4.1-5.1-6.9-6.6c-6.7-3.5-12.2-2.7-14.3-1.7c-0.6,0.4-1.2,0.9-1.7,1.5
			c-1.4,1.6-3.4,3.7-8.8,3.7h-0.2c-2.2,0.1-4.5-0.4-6.5-1.4c-1.7-0.7-3.6-1.6-9.5-1.6c-4.7,0-6.5,5.4-8.4,11.2
			c-1.7,5.2-3.5,10.5-8,10.5c-0.6,0-1.1-0.1-1.7-0.2c-5.1-1.4-7.2-6.7-8.9-11.3s-3.3-8.8-7.4-8.8c-3.3,0-3.4,0.7-3.6,2
			c-0.3,2.5-1.2,4.8-8.6,4.5c-6.9-0.3-10.7-2.3-14.3-4.3c-3.1-1.7-6.1-3.3-11-3.5c-11-0.4-81.5,0-82.2,0h-1v-2.5h1.2
			c7.3,0,71.6-0.4,82.2,0c5.5,0.2,8.7,1.9,12.1,3.8s6.9,3.7,13.2,4c5.7,0.2,5.8-0.8,6-2.3c0.3-2.2,1-4.1,6-4.1
			c5.8,0,7.8,5.3,9.8,10.4c1.6,4.3,3.3,8.7,7.3,9.8c3.3,0.9,4.6-2.7,6.6-8.6c1.9-5.8,4.2-12.9,10.8-12.9c6.4,0,8.6,1,10.5,1.8
			c1.7,0.8,3.6,1.2,5.5,1.1h0.1c4.3,0,5.7-1.5,7-2.9c0.7-0.8,1.5-1.5,2.5-2c2.6-1.2,9-2.2,16.5,1.7c3.2,1.7,5.5,4.5,7.7,7.2
			c2.4,3,4.7,5.8,7.6,5.8c2.4,0,3.8-4.3,5.1-8c1.6-4.6,3-9,6.7-9c3.1,0,5.6,4,8.4,8.6c2.3,3.7,4.8,7.9,7.1,8.3
			c0.7,0.1,1.4-0.2,1.9-0.6c2.7-2.3,5.3-4.7,7.7-7.3c4.8-4.9,8.5-8.7,14.3-8.7c5.1,0,6.6,2.8,8,5.5c1.1,2,2.2,4.1,5,5.6
			c5.8,3.2,15-5.9,19.4-10.3l0.7-0.7c4.6-4.6,6.7-5.1,10.6-5.3s59.5,0,60.1,0h0.2c9.4-0.1,56.3-0.3,60.2,0c3.5,0.3,6,0.8,10.5,5.3
			c0.5,0.5,1.1,1.1,1.8,1.8c4.3,4.5,11.6,12,16.9,9.1c2.8-1.5,3.9-3.6,5-5.6c1.4-2.7,2.9-5.5,8-5.5c6.3,0,11.2,4.5,17.3,10.1
			c2,1.9,4.2,3.9,6.6,5.9c0.4,0.5,1.1,0.7,1.8,0.6c2-0.4,4-4.4,5.9-8c2.4-4.6,4.6-8.9,7.8-8.9c3.6,0,5.7,4.3,8,8.8
			c1.9,3.8,4.1,8.1,6.6,8.2s3.8-2,5.6-5.2c1.6-2.8,3.4-6,6.9-7.8c7.5-3.9,13.9-2.9,16.5-1.7c1,0.5,1.9,1.2,2.6,2
			c1.2,1.5,2.3,2.8,6.5,2.8h0.2c2,0.1,3.9-0.3,5.7-1.1c2-0.8,4.4-1.8,10.7-1.8c6.6,0,8.4,7.2,9.8,13.1c0.9,3.6,1.8,7.3,3.5,8.3
			c0.6,0.3,1.4,0.4,2.1,0.1c4-1.1,6.1-5.5,8.2-9.8c2.5-5.1,5-10.4,10.8-10.4c5.2,0,6.2,2.1,7,3.7s1.5,3,7.5,2.7
			c4.3,0,8.4-1.4,11.8-4c3.2-2.4,7-3.8,11-3.8c11.2-0.4,81.6,0,82.3,0h1L734.2,21.1z"/>
	</g>
</g>
</svg>
